<?xml version="1.0" encoding="UTF-8" standalone="no"?>
<!DOCTYPE svg PUBLIC "-//W3C//DTD SVG 1.1//EN"
 "http://www.w3.org/Graphics/SVG/1.1/DTD/svg11.dtd">
<!-- Generated by graphviz version 2.38.0 (20140413.2041)
 -->
<!-- Title: %3 Pages: 1 -->
<svg width="303pt" height="474pt"
 viewBox="0.00 0.00 303.00 473.77" xmlns="http://www.w3.org/2000/svg" xmlns:xlink="http://www.w3.org/1999/xlink">
<g id="graph0" class="graph" transform="scale(1 1) rotate(0) translate(4 469.769)">
<title>%3</title>
<polygon fill="white" stroke="none" points="-4,4 -4,-469.769 299,-469.769 299,4 -4,4"/>
<!-- Ax\n &#160;0 -->
<g id="node1" class="node"><title>Ax\n &#160;0</title>
<ellipse fill="none" stroke="black" cx="69" cy="-440.314" rx="27" ry="25.4118"/>
<text text-anchor="middle" x="69" y="-443.114" font-family="Times,serif" font-size="14.00">Ax</text>
<text text-anchor="middle" x="69" y="-429.114" font-family="Times,serif" font-size="14.00"> &#160;0</text>
</g>
<!-- S\n 0,0 -->
<g id="node2" class="node"><title>S\n 0,0</title>
<ellipse fill="none" stroke="black" cx="69" cy="-336.599" rx="27" ry="25.4118"/>
<text text-anchor="middle" x="69" y="-339.399" font-family="Times,serif" font-size="14.00">S</text>
<text text-anchor="middle" x="69" y="-325.399" font-family="Times,serif" font-size="14.00"> 0,0</text>
</g>
<!-- Ax\n &#160;0&#45;&gt;S\n 0,0 -->
<g id="edge16" class="edge"><title>Ax\n &#160;0&#45;&gt;S\n 0,0</title>
<path fill="none" stroke="red" d="M69,-414.691C69,-402.041 69,-386.409 69,-372.535"/>
<polygon fill="red" stroke="red" points="72.5001,-372.347 69,-362.347 65.5001,-372.347 72.5001,-372.347"/>
<text text-anchor="middle" x="95.6431" y="-385.658" font-family="Times,serif" font-size="14.00">T.001 + ğœ€</text>
</g>
<!-- S\n 0,1 -->
<g id="node3" class="node"><title>S\n 0,1</title>
<ellipse fill="none" stroke="black" cx="27" cy="-232.885" rx="27" ry="25.4118"/>
<text text-anchor="middle" x="27" y="-235.685" font-family="Times,serif" font-size="14.00">S</text>
<text text-anchor="middle" x="27" y="-221.685" font-family="Times,serif" font-size="14.00"> 0,1</text>
</g>
<!-- S\n 0,0&#45;&gt;S\n 0,1 -->
<g id="edge17" class="edge"><title>S\n 0,0&#45;&gt;S\n 0,1</title>
<path fill="none" stroke="red" d="M48.2445,-320.122C40.2617,-312.905 32.0318,-303.596 27.7139,-293.143 24.5652,-285.521 23.3183,-276.862 23.0909,-268.564"/>
<polygon fill="red" stroke="red" points="26.5943,-268.413 23.2818,-258.349 19.5955,-268.282 26.5943,-268.413"/>
<text text-anchor="middle" x="54.6431" y="-281.943" font-family="Times,serif" font-size="14.00">T.002 + ğœ€</text>
</g>
<!-- N\n 0 -->
<g id="node15" class="node"><title>N\n 0</title>
<ellipse fill="none" stroke="black" cx="124" cy="-232.885" rx="27" ry="25.4118"/>
<text text-anchor="middle" x="124" y="-235.685" font-family="Times,serif" font-size="14.00">N</text>
<text text-anchor="middle" x="124" y="-221.685" font-family="Times,serif" font-size="14.00"> 0</text>
</g>
<!-- S\n 0,0&#45;&gt;N\n 0 -->
<g id="edge13" class="edge"><title>S\n 0,0&#45;&gt;N\n 0</title>
<path fill="none" stroke="red" d="M80.3055,-313.253C86.0158,-302.105 93.1163,-288.449 99.7139,-276.341 101.771,-272.566 103.964,-268.623 106.159,-264.728"/>
<polygon fill="red" stroke="red" points="109.322,-266.246 111.221,-255.823 103.236,-262.787 109.322,-266.246"/>
<text text-anchor="middle" x="126.643" y="-281.943" font-family="Times,serif" font-size="14.00">T.002 + ğœ€</text>
</g>
<!-- S\n 0,2 -->
<g id="node4" class="node"><title>S\n 0,2</title>
<ellipse fill="none" stroke="black" cx="40" cy="-129.17" rx="27" ry="25.4118"/>
<text text-anchor="middle" x="40" y="-131.97" font-family="Times,serif" font-size="14.00">S</text>
<text text-anchor="middle" x="40" y="-117.97" font-family="Times,serif" font-size="14.00"> 0,2</text>
</g>
<!-- S\n 0,1&#45;&gt;S\n 0,2 -->
<g id="edge18" class="edge"><title>S\n 0,1&#45;&gt;S\n 0,2</title>
<path fill="none" stroke="red" d="M25.8191,-207.261C25.6864,-196.565 26.0426,-183.924 27.7139,-172.626 28.1599,-169.611 28.7632,-166.51 29.4644,-163.421"/>
<polygon fill="red" stroke="red" points="32.8576,-164.279 31.9641,-153.722 26.0791,-162.532 32.8576,-164.279"/>
<text text-anchor="middle" x="54.6431" y="-178.229" font-family="Times,serif" font-size="14.00">T.003 + ğœ€</text>
</g>
<!-- N\n 1 -->
<g id="node13" class="node"><title>N\n 1</title>
<ellipse fill="none" stroke="black" cx="124" cy="-129.17" rx="27" ry="25.4118"/>
<text text-anchor="middle" x="124" y="-131.97" font-family="Times,serif" font-size="14.00">N</text>
<text text-anchor="middle" x="124" y="-117.97" font-family="Times,serif" font-size="14.00"> 1</text>
</g>
<!-- S\n 0,1&#45;&gt;N\n 1 -->
<g id="edge14" class="edge"><title>S\n 0,1&#45;&gt;N\n 1</title>
<path fill="none" stroke="red" d="M48.3891,-217.208C58.8003,-209.548 71.1605,-199.655 81,-189.429 89.5887,-180.502 97.8697,-169.785 104.833,-159.933"/>
<polygon fill="red" stroke="red" points="107.805,-161.788 110.587,-151.565 102.037,-157.822 107.805,-161.788"/>
<text text-anchor="middle" x="122.643" y="-178.229" font-family="Times,serif" font-size="14.00">T.003 + ğœ€</text>
</g>
<!-- N\n 2 -->
<g id="node14" class="node"><title>N\n 2</title>
<ellipse fill="none" stroke="black" cx="196" cy="-25.4558" rx="27" ry="25.4118"/>
<text text-anchor="middle" x="196" y="-28.2558" font-family="Times,serif" font-size="14.00">N</text>
<text text-anchor="middle" x="196" y="-14.2558" font-family="Times,serif" font-size="14.00"> 2</text>
</g>
<!-- S\n 0,2&#45;&gt;N\n 2 -->
<g id="edge15" class="edge"><title>S\n 0,2&#45;&gt;N\n 2</title>
<path fill="none" stroke="red" d="M62.0201,-113.813C89.0804,-96.1691 135.14,-66.1377 165.57,-46.2964"/>
<polygon fill="red" stroke="red" points="167.627,-49.1339 174.092,-40.7403 163.804,-43.2702 167.627,-49.1339"/>
<text text-anchor="middle" x="157.643" y="-74.5144" font-family="Times,serif" font-size="14.00">T.004 + ğœ€</text>
</g>
<!-- Ax\n &#160;1 -->
<g id="node5" class="node"><title>Ax\n &#160;1</title>
<ellipse fill="none" stroke="black" cx="261" cy="-440.314" rx="27" ry="25.4118"/>
<text text-anchor="middle" x="261" y="-443.114" font-family="Times,serif" font-size="14.00">Ax</text>
<text text-anchor="middle" x="261" y="-429.114" font-family="Times,serif" font-size="14.00"> &#160;1</text>
</g>
<!-- S\n 1,0 -->
<g id="node6" class="node"><title>S\n 1,0</title>
<ellipse fill="none" stroke="black" cx="261" cy="-336.599" rx="27" ry="25.4118"/>
<text text-anchor="middle" x="261" y="-339.399" font-family="Times,serif" font-size="14.00">S</text>
<text text-anchor="middle" x="261" y="-325.399" font-family="Times,serif" font-size="14.00"> 1,0</text>
</g>
<!-- Ax\n &#160;1&#45;&gt;S\n 1,0 -->
<g id="edge1" class="edge"><title>Ax\n &#160;1&#45;&gt;S\n 1,0</title>
<path fill="none" stroke="black" d="M261,-414.691C261,-402.041 261,-386.409 261,-372.535"/>
<polygon fill="black" stroke="black" points="264.5,-372.347 261,-362.347 257.5,-372.347 264.5,-372.347"/>
</g>
<!-- S\n 1,1 -->
<g id="node7" class="node"><title>S\n 1,1</title>
<ellipse fill="none" stroke="black" cx="268" cy="-232.885" rx="27" ry="25.4118"/>
<text text-anchor="middle" x="268" y="-235.685" font-family="Times,serif" font-size="14.00">S</text>
<text text-anchor="middle" x="268" y="-221.685" font-family="Times,serif" font-size="14.00"> 1,1</text>
</g>
<!-- S\n 1,0&#45;&gt;S\n 1,1 -->
<g id="edge2" class="edge"><title>S\n 1,0&#45;&gt;S\n 1,1</title>
<path fill="none" stroke="black" d="M262.695,-310.977C263.565,-298.327 264.641,-282.695 265.596,-268.821"/>
<polygon fill="black" stroke="black" points="269.102,-268.849 266.297,-258.633 262.118,-268.369 269.102,-268.849"/>
</g>
<!-- S\n 1,0&#45;&gt;N\n 0 -->
<g id="edge7" class="edge"><title>S\n 1,0&#45;&gt;N\n 0</title>
<path fill="none" stroke="black" d="M240.193,-320.151C216.957,-302.9 179.188,-274.859 153.048,-255.451"/>
<polygon fill="black" stroke="black" points="155.119,-252.629 145.003,-249.478 150.946,-258.25 155.119,-252.629"/>
</g>
<!-- S\n 1,2 -->
<g id="node8" class="node"><title>S\n 1,2</title>
<ellipse fill="none" stroke="black" cx="268" cy="-129.17" rx="27" ry="25.4118"/>
<text text-anchor="middle" x="268" y="-131.97" font-family="Times,serif" font-size="14.00">S</text>
<text text-anchor="middle" x="268" y="-117.97" font-family="Times,serif" font-size="14.00"> 1,2</text>
</g>
<!-- S\n 1,1&#45;&gt;S\n 1,2 -->
<g id="edge3" class="edge"><title>S\n 1,1&#45;&gt;S\n 1,2</title>
<path fill="none" stroke="black" d="M268,-207.262C268,-194.613 268,-178.98 268,-165.107"/>
<polygon fill="black" stroke="black" points="271.5,-164.918 268,-154.918 264.5,-164.918 271.5,-164.918"/>
</g>
<!-- S\n 1,1&#45;&gt;N\n 1 -->
<g id="edge8" class="edge"><title>S\n 1,1&#45;&gt;N\n 1</title>
<path fill="none" stroke="black" d="M246.752,-216.876C222.185,-199.524 181.579,-170.842 153.849,-151.254"/>
<polygon fill="black" stroke="black" points="155.522,-148.151 145.335,-145.24 151.483,-153.868 155.522,-148.151"/>
</g>
<!-- S\n 1,2&#45;&gt;N\n 2 -->
<g id="edge9" class="edge"><title>S\n 1,2&#45;&gt;N\n 2</title>
<path fill="none" stroke="black" d="M253.43,-107.587C242.792,-92.5593 228.23,-71.9872 216.431,-55.3191"/>
<polygon fill="black" stroke="black" points="219.183,-53.1485 210.549,-47.0087 213.47,-57.1929 219.183,-53.1485"/>
</g>
<!-- Ax\n &#160;2 -->
<g id="node9" class="node"><title>Ax\n &#160;2</title>
<ellipse fill="none" stroke="black" cx="177" cy="-440.314" rx="27" ry="25.4118"/>
<text text-anchor="middle" x="177" y="-443.114" font-family="Times,serif" font-size="14.00">Ax</text>
<text text-anchor="middle" x="177" y="-429.114" font-family="Times,serif" font-size="14.00"> &#160;2</text>
</g>
<!-- S\n 2,0 -->
<g id="node10" class="node"><title>S\n 2,0</title>
<ellipse fill="none" stroke="black" cx="177" cy="-336.599" rx="27" ry="25.4118"/>
<text text-anchor="middle" x="177" y="-339.399" font-family="Times,serif" font-size="14.00">S</text>
<text text-anchor="middle" x="177" y="-325.399" font-family="Times,serif" font-size="14.00"> 2,0</text>
</g>
<!-- Ax\n &#160;2&#45;&gt;S\n 2,0 -->
<g id="edge4" class="edge"><title>Ax\n &#160;2&#45;&gt;S\n 2,0</title>
<path fill="none" stroke="black" d="M177,-414.691C177,-402.041 177,-386.409 177,-372.535"/>
<polygon fill="black" stroke="black" points="180.5,-372.347 177,-362.347 173.5,-372.347 180.5,-372.347"/>
</g>
<!-- S\n 2,1 -->
<g id="node11" class="node"><title>S\n 2,1</title>
<ellipse fill="none" stroke="black" cx="196" cy="-232.885" rx="27" ry="25.4118"/>
<text text-anchor="middle" x="196" y="-235.685" font-family="Times,serif" font-size="14.00">S</text>
<text text-anchor="middle" x="196" y="-221.685" font-family="Times,serif" font-size="14.00"> 2,1</text>
</g>
<!-- S\n 2,0&#45;&gt;S\n 2,1 -->
<g id="edge5" class="edge"><title>S\n 2,0&#45;&gt;S\n 2,1</title>
<path fill="none" stroke="black" d="M181.503,-311.494C183.922,-298.541 186.946,-282.352 189.606,-268.116"/>
<polygon fill="black" stroke="black" points="193.068,-268.642 191.464,-258.169 186.187,-267.356 193.068,-268.642"/>
</g>
<!-- S\n 2,0&#45;&gt;N\n 0 -->
<g id="edge10" class="edge"><title>S\n 2,0&#45;&gt;N\n 0</title>
<path fill="none" stroke="black" d="M170.947,-311.77C167.628,-300.643 162.962,-287.435 157,-276.341 154.169,-271.072 150.688,-265.782 147.06,-260.811"/>
<polygon fill="black" stroke="black" points="149.775,-258.6 140.905,-252.806 144.226,-262.867 149.775,-258.6"/>
</g>
<!-- S\n 2,2 -->
<g id="node12" class="node"><title>S\n 2,2</title>
<ellipse fill="none" stroke="black" cx="196" cy="-129.17" rx="27" ry="25.4118"/>
<text text-anchor="middle" x="196" y="-131.97" font-family="Times,serif" font-size="14.00">S</text>
<text text-anchor="middle" x="196" y="-117.97" font-family="Times,serif" font-size="14.00"> 2,2</text>
</g>
<!-- S\n 2,1&#45;&gt;S\n 2,2 -->
<g id="edge6" class="edge"><title>S\n 2,1&#45;&gt;S\n 2,2</title>
<path fill="none" stroke="black" d="M196,-207.262C196,-194.613 196,-178.98 196,-165.107"/>
<polygon fill="black" stroke="black" points="199.5,-164.918 196,-154.918 192.5,-164.918 199.5,-164.918"/>
</g>
<!-- S\n 2,1&#45;&gt;N\n 1 -->
<g id="edge11" class="edge"><title>S\n 2,1&#45;&gt;N\n 1</title>
<path fill="none" stroke="black" d="M182.499,-210.494C175.167,-199.104 165.819,-184.943 157,-172.626 153.671,-167.977 150.046,-163.122 146.457,-158.426"/>
<polygon fill="black" stroke="black" points="148.997,-155.989 140.108,-150.224 143.461,-160.274 148.997,-155.989"/>
</g>
<!-- S\n 2,2&#45;&gt;N\n 2 -->
<g id="edge12" class="edge"><title>S\n 2,2&#45;&gt;N\n 2</title>
<path fill="none" stroke="black" d="M196,-103.548C196,-90.8981 196,-75.2661 196,-61.3921"/>
<polygon fill="black" stroke="black" points="199.5,-61.2038 196,-51.2039 192.5,-61.2039 199.5,-61.2038"/>
</g>
</g>
</svg>
