<?xml version="1.0" encoding="UTF-8" standalone="no"?>
<!DOCTYPE svg PUBLIC "-//W3C//DTD SVG 1.1//EN"
 "http://www.w3.org/Graphics/SVG/1.1/DTD/svg11.dtd">
<!-- Generated by graphviz version 2.38.0 (20140413.2041)
 -->
<!-- Title: %41 Pages: 1 -->
<svg width="422pt" height="580pt"
 viewBox="0.00 0.00 422.00 580.38" xmlns="http://www.w3.org/2000/svg" xmlns:xlink="http://www.w3.org/1999/xlink">
<g id="graph0" class="graph" transform="scale(1 1) rotate(0) translate(4 576.382)">
<title>%41</title>
<polygon fill="white" stroke="none" points="-4,4 -4,-576.382 418,-576.382 418,4 -4,4"/>
<!-- Ax\n &#160;0 -->
<g id="node1" class="node"><title>Ax\n &#160;0</title>
<ellipse fill="none" stroke="black" cx="202" cy="-546.926" rx="27" ry="25.4118"/>
<text text-anchor="middle" x="202" y="-549.726" font-family="Times,serif" font-size="14.00">Ax</text>
<text text-anchor="middle" x="202" y="-535.726" font-family="Times,serif" font-size="14.00"> &#160;0</text>
</g>
<!-- S\n 0,0 -->
<g id="node2" class="node"><title>S\n 0,0</title>
<ellipse fill="none" stroke="black" cx="202" cy="-460.014" rx="27" ry="25.4118"/>
<text text-anchor="middle" x="202" y="-462.814" font-family="Times,serif" font-size="14.00">S</text>
<text text-anchor="middle" x="202" y="-448.814" font-family="Times,serif" font-size="14.00"> 0,0</text>
</g>
<!-- Ax\n &#160;0&#45;&gt;S\n 0,0 -->
<g id="edge1" class="edge"><title>Ax\n &#160;0&#45;&gt;S\n 0,0</title>
<path fill="none" stroke="black" d="M202,-521.366C202,-513.357 202,-504.308 202,-495.7"/>
<polygon fill="black" stroke="black" points="205.5,-495.519 202,-485.519 198.5,-495.519 205.5,-495.519"/>
</g>
<!-- S\n 0,1 -->
<g id="node3" class="node"><title>S\n 0,1</title>
<ellipse fill="none" stroke="black" cx="171" cy="-373.103" rx="27" ry="25.4118"/>
<text text-anchor="middle" x="171" y="-375.903" font-family="Times,serif" font-size="14.00">S</text>
<text text-anchor="middle" x="171" y="-361.903" font-family="Times,serif" font-size="14.00"> 0,1</text>
</g>
<!-- S\n 0,0&#45;&gt;S\n 0,1 -->
<g id="edge2" class="edge"><title>S\n 0,0&#45;&gt;S\n 0,1</title>
<path fill="none" stroke="black" d="M193.529,-435.812C190.283,-426.92 186.514,-416.598 182.999,-406.97"/>
<polygon fill="black" stroke="black" points="186.178,-405.47 179.461,-397.277 179.602,-407.871 186.178,-405.47"/>
</g>
<!-- N\n 0 -->
<g id="node31" class="node"><title>N\n 0</title>
<ellipse fill="none" stroke="black" cx="243" cy="-373.103" rx="27" ry="25.4118"/>
<text text-anchor="middle" x="243" y="-375.903" font-family="Times,serif" font-size="14.00">N</text>
<text text-anchor="middle" x="243" y="-361.903" font-family="Times,serif" font-size="14.00"> 0</text>
</g>
<!-- S\n 0,0&#45;&gt;N\n 0 -->
<g id="edge26" class="edge"><title>S\n 0,0&#45;&gt;N\n 0</title>
<path fill="none" stroke="black" d="M212.987,-436.26C217.527,-426.857 222.867,-415.797 227.775,-405.634"/>
<polygon fill="black" stroke="black" points="230.928,-407.153 232.125,-396.626 224.625,-404.109 230.928,-407.153"/>
</g>
<!-- S\n 0,2 -->
<g id="node4" class="node"><title>S\n 0,2</title>
<ellipse fill="none" stroke="black" cx="171" cy="-286.191" rx="27" ry="25.4118"/>
<text text-anchor="middle" x="171" y="-288.991" font-family="Times,serif" font-size="14.00">S</text>
<text text-anchor="middle" x="171" y="-274.991" font-family="Times,serif" font-size="14.00"> 0,2</text>
</g>
<!-- S\n 0,1&#45;&gt;S\n 0,2 -->
<g id="edge3" class="edge"><title>S\n 0,1&#45;&gt;S\n 0,2</title>
<path fill="none" stroke="black" d="M171,-347.543C171,-339.534 171,-330.485 171,-321.877"/>
<polygon fill="black" stroke="black" points="174.5,-321.696 171,-311.696 167.5,-321.696 174.5,-321.696"/>
</g>
<!-- N\n 1 -->
<g id="node32" class="node"><title>N\n 1</title>
<ellipse fill="none" stroke="black" cx="243" cy="-286.191" rx="27" ry="25.4118"/>
<text text-anchor="middle" x="243" y="-288.991" font-family="Times,serif" font-size="14.00">N</text>
<text text-anchor="middle" x="243" y="-274.991" font-family="Times,serif" font-size="14.00"> 1</text>
</g>
<!-- S\n 0,1&#45;&gt;N\n 1 -->
<g id="edge27" class="edge"><title>S\n 0,1&#45;&gt;N\n 1</title>
<path fill="none" stroke="black" d="M187.338,-352.835C196.936,-341.516 209.223,-327.025 219.811,-314.539"/>
<polygon fill="black" stroke="black" points="222.68,-316.567 226.478,-306.676 217.341,-312.04 222.68,-316.567"/>
</g>
<!-- S\n 0,3 -->
<g id="node5" class="node"><title>S\n 0,3</title>
<ellipse fill="none" stroke="black" cx="171" cy="-199.279" rx="27" ry="25.4118"/>
<text text-anchor="middle" x="171" y="-202.079" font-family="Times,serif" font-size="14.00">S</text>
<text text-anchor="middle" x="171" y="-188.079" font-family="Times,serif" font-size="14.00"> 0,3</text>
</g>
<!-- S\n 0,2&#45;&gt;S\n 0,3 -->
<g id="edge4" class="edge"><title>S\n 0,2&#45;&gt;S\n 0,3</title>
<path fill="none" stroke="black" d="M171,-260.631C171,-252.622 171,-243.573 171,-234.965"/>
<polygon fill="black" stroke="black" points="174.5,-234.784 171,-224.784 167.5,-234.784 174.5,-234.784"/>
</g>
<!-- N\n 2 -->
<g id="node33" class="node"><title>N\n 2</title>
<ellipse fill="none" stroke="black" cx="243" cy="-199.279" rx="27" ry="25.4118"/>
<text text-anchor="middle" x="243" y="-202.079" font-family="Times,serif" font-size="14.00">N</text>
<text text-anchor="middle" x="243" y="-188.079" font-family="Times,serif" font-size="14.00"> 2</text>
</g>
<!-- S\n 0,2&#45;&gt;N\n 2 -->
<g id="edge28" class="edge"><title>S\n 0,2&#45;&gt;N\n 2</title>
<path fill="none" stroke="black" d="M187.338,-265.923C196.936,-254.604 209.223,-240.113 219.811,-227.627"/>
<polygon fill="black" stroke="black" points="222.68,-229.655 226.478,-219.765 217.341,-225.128 222.68,-229.655"/>
</g>
<!-- S\n 0,4 -->
<g id="node6" class="node"><title>S\n 0,4</title>
<ellipse fill="none" stroke="black" cx="171" cy="-112.368" rx="27" ry="25.4118"/>
<text text-anchor="middle" x="171" y="-115.168" font-family="Times,serif" font-size="14.00">S</text>
<text text-anchor="middle" x="171" y="-101.168" font-family="Times,serif" font-size="14.00"> 0,4</text>
</g>
<!-- S\n 0,3&#45;&gt;S\n 0,4 -->
<g id="edge5" class="edge"><title>S\n 0,3&#45;&gt;S\n 0,4</title>
<path fill="none" stroke="black" d="M171,-173.719C171,-165.71 171,-156.661 171,-148.054"/>
<polygon fill="black" stroke="black" points="174.5,-147.872 171,-137.872 167.5,-147.872 174.5,-147.872"/>
</g>
<!-- N\n 3 -->
<g id="node34" class="node"><title>N\n 3</title>
<ellipse fill="none" stroke="black" cx="243" cy="-112.368" rx="27" ry="25.4118"/>
<text text-anchor="middle" x="243" y="-115.168" font-family="Times,serif" font-size="14.00">N</text>
<text text-anchor="middle" x="243" y="-101.168" font-family="Times,serif" font-size="14.00"> 3</text>
</g>
<!-- S\n 0,3&#45;&gt;N\n 3 -->
<g id="edge29" class="edge"><title>S\n 0,3&#45;&gt;N\n 3</title>
<path fill="none" stroke="black" d="M187.338,-179.011C196.936,-167.692 209.223,-153.201 219.811,-140.715"/>
<polygon fill="black" stroke="black" points="222.68,-142.744 226.478,-132.853 217.341,-138.217 222.68,-142.744"/>
</g>
<!-- N\n 4 -->
<g id="node35" class="node"><title>N\n 4</title>
<ellipse fill="none" stroke="black" cx="171" cy="-25.4558" rx="27" ry="25.4118"/>
<text text-anchor="middle" x="171" y="-28.2558" font-family="Times,serif" font-size="14.00">N</text>
<text text-anchor="middle" x="171" y="-14.2558" font-family="Times,serif" font-size="14.00"> 4</text>
</g>
<!-- S\n 0,4&#45;&gt;N\n 4 -->
<g id="edge30" class="edge"><title>S\n 0,4&#45;&gt;N\n 4</title>
<path fill="none" stroke="black" d="M171,-86.8076C171,-78.7986 171,-69.7497 171,-61.1419"/>
<polygon fill="black" stroke="black" points="174.5,-60.9606 171,-50.9606 167.5,-60.9607 174.5,-60.9606"/>
</g>
<!-- Ax\n &#160;1 -->
<g id="node7" class="node"><title>Ax\n &#160;1</title>
<ellipse fill="none" stroke="black" cx="310" cy="-546.926" rx="27" ry="25.4118"/>
<text text-anchor="middle" x="310" y="-549.726" font-family="Times,serif" font-size="14.00">Ax</text>
<text text-anchor="middle" x="310" y="-535.726" font-family="Times,serif" font-size="14.00"> &#160;1</text>
</g>
<!-- S\n 1,0 -->
<g id="node8" class="node"><title>S\n 1,0</title>
<ellipse fill="none" stroke="black" cx="310" cy="-460.014" rx="27" ry="25.4118"/>
<text text-anchor="middle" x="310" y="-462.814" font-family="Times,serif" font-size="14.00">S</text>
<text text-anchor="middle" x="310" y="-448.814" font-family="Times,serif" font-size="14.00"> 1,0</text>
</g>
<!-- Ax\n &#160;1&#45;&gt;S\n 1,0 -->
<g id="edge6" class="edge"><title>Ax\n &#160;1&#45;&gt;S\n 1,0</title>
<path fill="none" stroke="black" d="M310,-521.366C310,-513.357 310,-504.308 310,-495.7"/>
<polygon fill="black" stroke="black" points="313.5,-495.519 310,-485.519 306.5,-495.519 313.5,-495.519"/>
</g>
<!-- S\n 1,1 -->
<g id="node9" class="node"><title>S\n 1,1</title>
<ellipse fill="none" stroke="black" cx="315" cy="-373.103" rx="27" ry="25.4118"/>
<text text-anchor="middle" x="315" y="-375.903" font-family="Times,serif" font-size="14.00">S</text>
<text text-anchor="middle" x="315" y="-361.903" font-family="Times,serif" font-size="14.00"> 1,1</text>
</g>
<!-- S\n 1,0&#45;&gt;S\n 1,1 -->
<g id="edge7" class="edge"><title>S\n 1,0&#45;&gt;S\n 1,1</title>
<path fill="none" stroke="black" d="M311.446,-434.454C311.918,-426.445 312.451,-417.396 312.958,-408.789"/>
<polygon fill="black" stroke="black" points="316.463,-408.796 313.557,-398.607 309.475,-408.384 316.463,-408.796"/>
</g>
<!-- S\n 1,0&#45;&gt;N\n 0 -->
<g id="edge31" class="edge"><title>S\n 1,0&#45;&gt;N\n 0</title>
<path fill="none" stroke="black" d="M294.122,-438.891C285.444,-427.894 274.561,-414.101 265.069,-402.072"/>
<polygon fill="black" stroke="black" points="267.706,-399.763 258.764,-394.081 262.211,-404.1 267.706,-399.763"/>
</g>
<!-- S\n 1,2 -->
<g id="node10" class="node"><title>S\n 1,2</title>
<ellipse fill="none" stroke="black" cx="315" cy="-286.191" rx="27" ry="25.4118"/>
<text text-anchor="middle" x="315" y="-288.991" font-family="Times,serif" font-size="14.00">S</text>
<text text-anchor="middle" x="315" y="-274.991" font-family="Times,serif" font-size="14.00"> 1,2</text>
</g>
<!-- S\n 1,1&#45;&gt;S\n 1,2 -->
<g id="edge8" class="edge"><title>S\n 1,1&#45;&gt;S\n 1,2</title>
<path fill="none" stroke="black" d="M315,-347.543C315,-339.534 315,-330.485 315,-321.877"/>
<polygon fill="black" stroke="black" points="318.5,-321.696 315,-311.696 311.5,-321.696 318.5,-321.696"/>
</g>
<!-- S\n 1,1&#45;&gt;N\n 1 -->
<g id="edge32" class="edge"><title>S\n 1,1&#45;&gt;N\n 1</title>
<path fill="none" stroke="black" d="M298.662,-352.835C289.064,-341.516 276.777,-327.025 266.189,-314.539"/>
<polygon fill="black" stroke="black" points="268.659,-312.04 259.522,-306.676 263.32,-316.567 268.659,-312.04"/>
</g>
<!-- S\n 1,3 -->
<g id="node11" class="node"><title>S\n 1,3</title>
<ellipse fill="none" stroke="black" cx="315" cy="-199.279" rx="27" ry="25.4118"/>
<text text-anchor="middle" x="315" y="-202.079" font-family="Times,serif" font-size="14.00">S</text>
<text text-anchor="middle" x="315" y="-188.079" font-family="Times,serif" font-size="14.00"> 1,3</text>
</g>
<!-- S\n 1,2&#45;&gt;S\n 1,3 -->
<g id="edge9" class="edge"><title>S\n 1,2&#45;&gt;S\n 1,3</title>
<path fill="none" stroke="black" d="M315,-260.631C315,-252.622 315,-243.573 315,-234.965"/>
<polygon fill="black" stroke="black" points="318.5,-234.784 315,-224.784 311.5,-234.784 318.5,-234.784"/>
</g>
<!-- S\n 1,2&#45;&gt;N\n 2 -->
<g id="edge33" class="edge"><title>S\n 1,2&#45;&gt;N\n 2</title>
<path fill="none" stroke="black" d="M298.662,-265.923C289.064,-254.604 276.777,-240.113 266.189,-227.627"/>
<polygon fill="black" stroke="black" points="268.659,-225.128 259.522,-219.765 263.32,-229.655 268.659,-225.128"/>
</g>
<!-- S\n 1,4 -->
<g id="node12" class="node"><title>S\n 1,4</title>
<ellipse fill="none" stroke="black" cx="315" cy="-112.368" rx="27" ry="25.4118"/>
<text text-anchor="middle" x="315" y="-115.168" font-family="Times,serif" font-size="14.00">S</text>
<text text-anchor="middle" x="315" y="-101.168" font-family="Times,serif" font-size="14.00"> 1,4</text>
</g>
<!-- S\n 1,3&#45;&gt;S\n 1,4 -->
<g id="edge10" class="edge"><title>S\n 1,3&#45;&gt;S\n 1,4</title>
<path fill="none" stroke="black" d="M315,-173.719C315,-165.71 315,-156.661 315,-148.054"/>
<polygon fill="black" stroke="black" points="318.5,-147.872 315,-137.872 311.5,-147.872 318.5,-147.872"/>
</g>
<!-- S\n 1,3&#45;&gt;N\n 3 -->
<g id="edge34" class="edge"><title>S\n 1,3&#45;&gt;N\n 3</title>
<path fill="none" stroke="black" d="M298.662,-179.011C289.064,-167.692 276.777,-153.201 266.189,-140.715"/>
<polygon fill="black" stroke="black" points="268.659,-138.217 259.522,-132.853 263.32,-142.744 268.659,-138.217"/>
</g>
<!-- S\n 1,4&#45;&gt;N\n 4 -->
<g id="edge35" class="edge"><title>S\n 1,4&#45;&gt;N\n 4</title>
<path fill="none" stroke="black" d="M293.497,-96.3174C288.771,-93.1344 283.756,-89.8509 279,-86.9117 254.049,-71.493 225.001,-55.3289 203.318,-43.598"/>
<polygon fill="black" stroke="black" points="204.975,-40.5148 194.51,-38.857 201.657,-46.6786 204.975,-40.5148"/>
</g>
<!-- Ax\n &#160;2 -->
<g id="node13" class="node"><title>Ax\n &#160;2</title>
<ellipse fill="none" stroke="black" cx="384" cy="-546.926" rx="27" ry="25.4118"/>
<text text-anchor="middle" x="384" y="-549.726" font-family="Times,serif" font-size="14.00">Ax</text>
<text text-anchor="middle" x="384" y="-535.726" font-family="Times,serif" font-size="14.00"> &#160;2</text>
</g>
<!-- S\n 2,0 -->
<g id="node14" class="node"><title>S\n 2,0</title>
<ellipse fill="none" stroke="black" cx="384" cy="-460.014" rx="27" ry="25.4118"/>
<text text-anchor="middle" x="384" y="-462.814" font-family="Times,serif" font-size="14.00">S</text>
<text text-anchor="middle" x="384" y="-448.814" font-family="Times,serif" font-size="14.00"> 2,0</text>
</g>
<!-- Ax\n &#160;2&#45;&gt;S\n 2,0 -->
<g id="edge11" class="edge"><title>Ax\n &#160;2&#45;&gt;S\n 2,0</title>
<path fill="none" stroke="black" d="M384,-521.366C384,-513.357 384,-504.308 384,-495.7"/>
<polygon fill="black" stroke="black" points="387.5,-495.519 384,-485.519 380.5,-495.519 387.5,-495.519"/>
</g>
<!-- S\n 2,1 -->
<g id="node15" class="node"><title>S\n 2,1</title>
<ellipse fill="none" stroke="black" cx="387" cy="-373.103" rx="27" ry="25.4118"/>
<text text-anchor="middle" x="387" y="-375.903" font-family="Times,serif" font-size="14.00">S</text>
<text text-anchor="middle" x="387" y="-361.903" font-family="Times,serif" font-size="14.00"> 2,1</text>
</g>
<!-- S\n 2,0&#45;&gt;S\n 2,1 -->
<g id="edge12" class="edge"><title>S\n 2,0&#45;&gt;S\n 2,1</title>
<path fill="none" stroke="black" d="M384.868,-434.454C385.151,-426.445 385.47,-417.396 385.775,-408.789"/>
<polygon fill="black" stroke="black" points="389.279,-408.725 386.134,-398.607 382.283,-408.478 389.279,-408.725"/>
</g>
<!-- S\n 2,0&#45;&gt;N\n 0 -->
<g id="edge36" class="edge"><title>S\n 2,0&#45;&gt;N\n 0</title>
<path fill="none" stroke="black" d="M362.08,-444.492C356.859,-441.149 351.272,-437.665 346,-434.558 316.876,-417.398 307.909,-416.08 279,-398.558 277.057,-397.381 275.075,-396.143 273.088,-394.875"/>
<polygon fill="black" stroke="black" points="274.745,-391.776 264.465,-389.215 270.904,-397.628 274.745,-391.776"/>
</g>
<!-- S\n 2,2 -->
<g id="node16" class="node"><title>S\n 2,2</title>
<ellipse fill="none" stroke="black" cx="387" cy="-286.191" rx="27" ry="25.4118"/>
<text text-anchor="middle" x="387" y="-288.991" font-family="Times,serif" font-size="14.00">S</text>
<text text-anchor="middle" x="387" y="-274.991" font-family="Times,serif" font-size="14.00"> 2,2</text>
</g>
<!-- S\n 2,1&#45;&gt;S\n 2,2 -->
<g id="edge13" class="edge"><title>S\n 2,1&#45;&gt;S\n 2,2</title>
<path fill="none" stroke="black" d="M387,-347.543C387,-339.534 387,-330.485 387,-321.877"/>
<polygon fill="black" stroke="black" points="390.5,-321.696 387,-311.696 383.5,-321.696 390.5,-321.696"/>
</g>
<!-- S\n 2,1&#45;&gt;N\n 1 -->
<g id="edge37" class="edge"><title>S\n 2,1&#45;&gt;N\n 1</title>
<path fill="none" stroke="black" d="M365.599,-356.883C360.867,-353.71 355.824,-350.474 351,-347.647 320.135,-329.555 309.865,-329.739 279,-311.647 277.04,-310.498 275.045,-309.282 273.048,-308.03"/>
<polygon fill="black" stroke="black" points="274.693,-304.925 264.401,-302.411 270.879,-310.794 274.693,-304.925"/>
</g>
<!-- S\n 2,3 -->
<g id="node17" class="node"><title>S\n 2,3</title>
<ellipse fill="none" stroke="black" cx="387" cy="-199.279" rx="27" ry="25.4118"/>
<text text-anchor="middle" x="387" y="-202.079" font-family="Times,serif" font-size="14.00">S</text>
<text text-anchor="middle" x="387" y="-188.079" font-family="Times,serif" font-size="14.00"> 2,3</text>
</g>
<!-- S\n 2,2&#45;&gt;S\n 2,3 -->
<g id="edge14" class="edge"><title>S\n 2,2&#45;&gt;S\n 2,3</title>
<path fill="none" stroke="black" d="M387,-260.631C387,-252.622 387,-243.573 387,-234.965"/>
<polygon fill="black" stroke="black" points="390.5,-234.784 387,-224.784 383.5,-234.784 390.5,-234.784"/>
</g>
<!-- S\n 2,2&#45;&gt;N\n 2 -->
<g id="edge38" class="edge"><title>S\n 2,2&#45;&gt;N\n 2</title>
<path fill="none" stroke="black" d="M365.599,-269.971C360.867,-266.799 355.824,-263.563 351,-260.735 320.135,-242.643 309.865,-242.827 279,-224.735 277.04,-223.586 275.045,-222.37 273.048,-221.118"/>
<polygon fill="black" stroke="black" points="274.693,-218.013 264.401,-215.499 270.879,-223.883 274.693,-218.013"/>
</g>
<!-- S\n 2,4 -->
<g id="node18" class="node"><title>S\n 2,4</title>
<ellipse fill="none" stroke="black" cx="387" cy="-112.368" rx="27" ry="25.4118"/>
<text text-anchor="middle" x="387" y="-115.168" font-family="Times,serif" font-size="14.00">S</text>
<text text-anchor="middle" x="387" y="-101.168" font-family="Times,serif" font-size="14.00"> 2,4</text>
</g>
<!-- S\n 2,3&#45;&gt;S\n 2,4 -->
<g id="edge15" class="edge"><title>S\n 2,3&#45;&gt;S\n 2,4</title>
<path fill="none" stroke="black" d="M387,-173.719C387,-165.71 387,-156.661 387,-148.054"/>
<polygon fill="black" stroke="black" points="390.5,-147.872 387,-137.872 383.5,-147.872 390.5,-147.872"/>
</g>
<!-- S\n 2,3&#45;&gt;N\n 3 -->
<g id="edge39" class="edge"><title>S\n 2,3&#45;&gt;N\n 3</title>
<path fill="none" stroke="black" d="M365.599,-183.06C360.867,-179.887 355.824,-176.651 351,-173.823 320.135,-155.731 309.865,-155.916 279,-137.823 277.04,-136.675 275.045,-135.459 273.048,-134.207"/>
<polygon fill="black" stroke="black" points="274.693,-131.102 264.401,-128.587 270.879,-136.971 274.693,-131.102"/>
</g>
<!-- S\n 2,4&#45;&gt;N\n 4 -->
<g id="edge40" class="edge"><title>S\n 2,4&#45;&gt;N\n 4</title>
<path fill="none" stroke="black" d="M366.265,-95.882C361.407,-92.6548 356.145,-89.4629 351,-86.9117 303.218,-63.2161 243.938,-45.3245 206.777,-35.3651"/>
<polygon fill="black" stroke="black" points="207.472,-31.9289 196.911,-32.7681 205.69,-38.6983 207.472,-31.9289"/>
</g>
<!-- Ax\n &#160;3 -->
<g id="node19" class="node"><title>Ax\n &#160;3</title>
<ellipse fill="none" stroke="black" cx="31" cy="-546.926" rx="27" ry="25.4118"/>
<text text-anchor="middle" x="31" y="-549.726" font-family="Times,serif" font-size="14.00">Ax</text>
<text text-anchor="middle" x="31" y="-535.726" font-family="Times,serif" font-size="14.00"> &#160;3</text>
</g>
<!-- S\n 3,0 -->
<g id="node20" class="node"><title>S\n 3,0</title>
<ellipse fill="none" stroke="black" cx="31" cy="-460.014" rx="27" ry="25.4118"/>
<text text-anchor="middle" x="31" y="-462.814" font-family="Times,serif" font-size="14.00">S</text>
<text text-anchor="middle" x="31" y="-448.814" font-family="Times,serif" font-size="14.00"> 3,0</text>
</g>
<!-- Ax\n &#160;3&#45;&gt;S\n 3,0 -->
<g id="edge16" class="edge"><title>Ax\n &#160;3&#45;&gt;S\n 3,0</title>
<path fill="none" stroke="black" d="M31,-521.366C31,-513.357 31,-504.308 31,-495.7"/>
<polygon fill="black" stroke="black" points="34.5001,-495.519 31,-485.519 27.5001,-495.519 34.5001,-495.519"/>
</g>
<!-- S\n 3,1 -->
<g id="node21" class="node"><title>S\n 3,1</title>
<ellipse fill="none" stroke="black" cx="27" cy="-373.103" rx="27" ry="25.4118"/>
<text text-anchor="middle" x="27" y="-375.903" font-family="Times,serif" font-size="14.00">S</text>
<text text-anchor="middle" x="27" y="-361.903" font-family="Times,serif" font-size="14.00"> 3,1</text>
</g>
<!-- S\n 3,0&#45;&gt;S\n 3,1 -->
<g id="edge17" class="edge"><title>S\n 3,0&#45;&gt;S\n 3,1</title>
<path fill="none" stroke="black" d="M29.843,-434.454C29.4658,-426.445 29.0395,-417.396 28.634,-408.789"/>
<polygon fill="black" stroke="black" points="32.1211,-408.432 28.1544,-398.607 25.1289,-408.761 32.1211,-408.432"/>
</g>
<!-- S\n 3,0&#45;&gt;N\n 0 -->
<g id="edge41" class="edge"><title>S\n 3,0&#45;&gt;N\n 0</title>
<path fill="none" stroke="black" d="M53.4,-445.528C60.4665,-441.634 68.4123,-437.615 76,-434.558 132.006,-411.994 152.178,-423.864 207,-398.558 209.281,-397.506 211.577,-396.314 213.845,-395.036"/>
<polygon fill="black" stroke="black" points="215.678,-398.018 222.367,-389.803 212.014,-392.053 215.678,-398.018"/>
</g>
<!-- S\n 3,2 -->
<g id="node22" class="node"><title>S\n 3,2</title>
<ellipse fill="none" stroke="black" cx="27" cy="-286.191" rx="27" ry="25.4118"/>
<text text-anchor="middle" x="27" y="-288.991" font-family="Times,serif" font-size="14.00">S</text>
<text text-anchor="middle" x="27" y="-274.991" font-family="Times,serif" font-size="14.00"> 3,2</text>
</g>
<!-- S\n 3,1&#45;&gt;S\n 3,2 -->
<g id="edge18" class="edge"><title>S\n 3,1&#45;&gt;S\n 3,2</title>
<path fill="none" stroke="black" d="M27,-347.543C27,-339.534 27,-330.485 27,-321.877"/>
<polygon fill="black" stroke="black" points="30.5001,-321.696 27,-311.696 23.5001,-321.696 30.5001,-321.696"/>
</g>
<!-- S\n 3,1&#45;&gt;N\n 1 -->
<g id="edge42" class="edge"><title>S\n 3,1&#45;&gt;N\n 1</title>
<path fill="none" stroke="black" d="M47.5917,-356.313C52.4566,-353.101 57.7587,-349.993 63,-347.647 123.213,-320.696 146.787,-338.598 207,-311.647 209.129,-310.694 211.269,-309.615 213.385,-308.454"/>
<polygon fill="black" stroke="black" points="215.673,-311.16 222.408,-302.981 212.043,-305.175 215.673,-311.16"/>
</g>
<!-- S\n 3,3 -->
<g id="node23" class="node"><title>S\n 3,3</title>
<ellipse fill="none" stroke="black" cx="27" cy="-199.279" rx="27" ry="25.4118"/>
<text text-anchor="middle" x="27" y="-202.079" font-family="Times,serif" font-size="14.00">S</text>
<text text-anchor="middle" x="27" y="-188.079" font-family="Times,serif" font-size="14.00"> 3,3</text>
</g>
<!-- S\n 3,2&#45;&gt;S\n 3,3 -->
<g id="edge19" class="edge"><title>S\n 3,2&#45;&gt;S\n 3,3</title>
<path fill="none" stroke="black" d="M27,-260.631C27,-252.622 27,-243.573 27,-234.965"/>
<polygon fill="black" stroke="black" points="30.5001,-234.784 27,-224.784 23.5001,-234.784 30.5001,-234.784"/>
</g>
<!-- S\n 3,2&#45;&gt;N\n 2 -->
<g id="edge43" class="edge"><title>S\n 3,2&#45;&gt;N\n 2</title>
<path fill="none" stroke="black" d="M47.5917,-269.401C52.4566,-266.189 57.7587,-263.081 63,-260.735 123.213,-233.784 146.787,-251.686 207,-224.735 209.129,-223.782 211.269,-222.703 213.385,-221.543"/>
<polygon fill="black" stroke="black" points="215.673,-224.248 222.408,-216.069 212.043,-218.263 215.673,-224.248"/>
</g>
<!-- S\n 3,4 -->
<g id="node24" class="node"><title>S\n 3,4</title>
<ellipse fill="none" stroke="black" cx="27" cy="-112.368" rx="27" ry="25.4118"/>
<text text-anchor="middle" x="27" y="-115.168" font-family="Times,serif" font-size="14.00">S</text>
<text text-anchor="middle" x="27" y="-101.168" font-family="Times,serif" font-size="14.00"> 3,4</text>
</g>
<!-- S\n 3,3&#45;&gt;S\n 3,4 -->
<g id="edge20" class="edge"><title>S\n 3,3&#45;&gt;S\n 3,4</title>
<path fill="none" stroke="black" d="M27,-173.719C27,-165.71 27,-156.661 27,-148.054"/>
<polygon fill="black" stroke="black" points="30.5001,-147.872 27,-137.872 23.5001,-147.872 30.5001,-147.872"/>
</g>
<!-- S\n 3,3&#45;&gt;N\n 3 -->
<g id="edge44" class="edge"><title>S\n 3,3&#45;&gt;N\n 3</title>
<path fill="none" stroke="black" d="M47.5917,-182.489C52.4566,-179.278 57.7587,-176.169 63,-173.823 123.213,-146.872 146.787,-164.774 207,-137.823 209.129,-136.87 211.269,-135.791 213.385,-134.631"/>
<polygon fill="black" stroke="black" points="215.673,-137.336 222.408,-129.158 212.043,-131.351 215.673,-137.336"/>
</g>
<!-- S\n 3,4&#45;&gt;N\n 4 -->
<g id="edge45" class="edge"><title>S\n 3,4&#45;&gt;N\n 4</title>
<path fill="none" stroke="black" d="M48.5028,-96.3174C53.229,-93.1344 58.2436,-89.8509 63,-86.9117 87.9512,-71.493 116.999,-55.3289 138.682,-43.598"/>
<polygon fill="black" stroke="black" points="140.343,-46.6786 147.49,-38.857 137.025,-40.5148 140.343,-46.6786"/>
</g>
<!-- Ax\n &#160;4 -->
<g id="node25" class="node"><title>Ax\n &#160;4</title>
<ellipse fill="none" stroke="black" cx="112" cy="-546.926" rx="27" ry="25.4118"/>
<text text-anchor="middle" x="112" y="-549.726" font-family="Times,serif" font-size="14.00">Ax</text>
<text text-anchor="middle" x="112" y="-535.726" font-family="Times,serif" font-size="14.00"> &#160;4</text>
</g>
<!-- S\n 4,0 -->
<g id="node26" class="node"><title>S\n 4,0</title>
<ellipse fill="none" stroke="black" cx="112" cy="-460.014" rx="27" ry="25.4118"/>
<text text-anchor="middle" x="112" y="-462.814" font-family="Times,serif" font-size="14.00">S</text>
<text text-anchor="middle" x="112" y="-448.814" font-family="Times,serif" font-size="14.00"> 4,0</text>
</g>
<!-- Ax\n &#160;4&#45;&gt;S\n 4,0 -->
<g id="edge21" class="edge"><title>Ax\n &#160;4&#45;&gt;S\n 4,0</title>
<path fill="none" stroke="black" d="M112,-521.366C112,-513.357 112,-504.308 112,-495.7"/>
<polygon fill="black" stroke="black" points="115.5,-495.519 112,-485.519 108.5,-495.519 115.5,-495.519"/>
</g>
<!-- S\n 4,1 -->
<g id="node27" class="node"><title>S\n 4,1</title>
<ellipse fill="none" stroke="black" cx="99" cy="-373.103" rx="27" ry="25.4118"/>
<text text-anchor="middle" x="99" y="-375.903" font-family="Times,serif" font-size="14.00">S</text>
<text text-anchor="middle" x="99" y="-361.903" font-family="Times,serif" font-size="14.00"> 4,1</text>
</g>
<!-- S\n 4,0&#45;&gt;S\n 4,1 -->
<g id="edge22" class="edge"><title>S\n 4,0&#45;&gt;S\n 4,1</title>
<path fill="none" stroke="black" d="M108.24,-434.454C107,-426.357 105.598,-417.197 104.267,-408.505"/>
<polygon fill="black" stroke="black" points="107.725,-407.962 102.752,-398.607 100.805,-409.022 107.725,-407.962"/>
</g>
<!-- S\n 4,0&#45;&gt;N\n 0 -->
<g id="edge46" class="edge"><title>S\n 4,0&#45;&gt;N\n 0</title>
<path fill="none" stroke="black" d="M134.387,-445.032C153.716,-432.898 182.336,-414.779 207,-398.558 208.898,-397.31 210.846,-396.018 212.808,-394.709"/>
<polygon fill="black" stroke="black" points="215.024,-397.436 221.369,-388.951 211.118,-391.628 215.024,-397.436"/>
</g>
<!-- S\n 4,2 -->
<g id="node28" class="node"><title>S\n 4,2</title>
<ellipse fill="none" stroke="black" cx="99" cy="-286.191" rx="27" ry="25.4118"/>
<text text-anchor="middle" x="99" y="-288.991" font-family="Times,serif" font-size="14.00">S</text>
<text text-anchor="middle" x="99" y="-274.991" font-family="Times,serif" font-size="14.00"> 4,2</text>
</g>
<!-- S\n 4,1&#45;&gt;S\n 4,2 -->
<g id="edge23" class="edge"><title>S\n 4,1&#45;&gt;S\n 4,2</title>
<path fill="none" stroke="black" d="M99,-347.543C99,-339.534 99,-330.485 99,-321.877"/>
<polygon fill="black" stroke="black" points="102.5,-321.696 99,-311.696 95.5001,-321.696 102.5,-321.696"/>
</g>
<!-- S\n 4,1&#45;&gt;N\n 1 -->
<g id="edge47" class="edge"><title>S\n 4,1&#45;&gt;N\n 1</title>
<path fill="none" stroke="black" d="M120.401,-356.883C125.133,-353.71 130.176,-350.474 135,-347.647 165.865,-329.555 176.135,-329.739 207,-311.647 208.96,-310.498 210.955,-309.282 212.952,-308.03"/>
<polygon fill="black" stroke="black" points="215.121,-310.794 221.599,-302.411 211.307,-304.925 215.121,-310.794"/>
</g>
<!-- S\n 4,3 -->
<g id="node29" class="node"><title>S\n 4,3</title>
<ellipse fill="none" stroke="black" cx="99" cy="-199.279" rx="27" ry="25.4118"/>
<text text-anchor="middle" x="99" y="-202.079" font-family="Times,serif" font-size="14.00">S</text>
<text text-anchor="middle" x="99" y="-188.079" font-family="Times,serif" font-size="14.00"> 4,3</text>
</g>
<!-- S\n 4,2&#45;&gt;S\n 4,3 -->
<g id="edge24" class="edge"><title>S\n 4,2&#45;&gt;S\n 4,3</title>
<path fill="none" stroke="black" d="M99,-260.631C99,-252.622 99,-243.573 99,-234.965"/>
<polygon fill="black" stroke="black" points="102.5,-234.784 99,-224.784 95.5001,-234.784 102.5,-234.784"/>
</g>
<!-- S\n 4,2&#45;&gt;N\n 2 -->
<g id="edge48" class="edge"><title>S\n 4,2&#45;&gt;N\n 2</title>
<path fill="none" stroke="black" d="M120.401,-269.971C125.133,-266.799 130.176,-263.563 135,-260.735 165.865,-242.643 176.135,-242.827 207,-224.735 208.96,-223.586 210.955,-222.37 212.952,-221.118"/>
<polygon fill="black" stroke="black" points="215.121,-223.883 221.599,-215.499 211.307,-218.013 215.121,-223.883"/>
</g>
<!-- S\n 4,4 -->
<g id="node30" class="node"><title>S\n 4,4</title>
<ellipse fill="none" stroke="black" cx="99" cy="-112.368" rx="27" ry="25.4118"/>
<text text-anchor="middle" x="99" y="-115.168" font-family="Times,serif" font-size="14.00">S</text>
<text text-anchor="middle" x="99" y="-101.168" font-family="Times,serif" font-size="14.00"> 4,4</text>
</g>
<!-- S\n 4,3&#45;&gt;S\n 4,4 -->
<g id="edge25" class="edge"><title>S\n 4,3&#45;&gt;S\n 4,4</title>
<path fill="none" stroke="black" d="M99,-173.719C99,-165.71 99,-156.661 99,-148.054"/>
<polygon fill="black" stroke="black" points="102.5,-147.872 99,-137.872 95.5001,-147.872 102.5,-147.872"/>
</g>
<!-- S\n 4,3&#45;&gt;N\n 3 -->
<g id="edge49" class="edge"><title>S\n 4,3&#45;&gt;N\n 3</title>
<path fill="none" stroke="black" d="M120.401,-183.06C125.133,-179.887 130.176,-176.651 135,-173.823 165.865,-155.731 176.135,-155.916 207,-137.823 208.96,-136.675 210.955,-135.459 212.952,-134.207"/>
<polygon fill="black" stroke="black" points="215.121,-136.971 221.599,-128.587 211.307,-131.102 215.121,-136.971"/>
</g>
<!-- S\n 4,4&#45;&gt;N\n 4 -->
<g id="edge50" class="edge"><title>S\n 4,4&#45;&gt;N\n 4</title>
<path fill="none" stroke="black" d="M115.338,-92.0998C124.936,-80.7807 137.223,-66.2896 147.811,-53.8035"/>
<polygon fill="black" stroke="black" points="150.68,-55.832 154.478,-45.9413 145.341,-51.3049 150.68,-55.832"/>
</g>
</g>
</svg>
